<?xml version="1.0" standalone="no"?>
<!DOCTYPE svg PUBLIC "-//W3C//DTD SVG 20010904//EN"
 "http://www.w3.org/TR/2001/REC-SVG-20010904/DTD/svg10.dtd">
<svg version="1.0" xmlns="http://www.w3.org/2000/svg"
 width="260.000000pt" height="260.000000pt" viewBox="0 0 260.000000 260.000000"
 preserveAspectRatio="xMidYMid meet">
<metadata>
Created by potrace 1.11, written by Peter Selinger 2001-2013
</metadata>
<g transform="translate(0.000000,260.000000) scale(0.100000,-0.100000)"
fill="#000000" stroke="none">
<path d="M810 2120 l-25 -6 -1 -227 -2 -227 44 0 44 0 0 124 c0 131 2 136 50
136 35 0 43 -26 44 -143 l2 -112 44 0 45 0 0 90 c1 131 -9 175 -46 206 -25 22
-40 27 -82 26 l-52 0 -3 71 c-3 76 -3 76 -62 62z"/>
<path d="M380 2040 l0 -40 65 0 65 0 -1 -157 c0 -87 0 -164 0 -170 1 -9 17
-13 46 -13 l45 0 1 48 c0 26 0 102 0 170 l-1 122 63 0 64 0 0 40 0 40 -174 0
-173 0 0 -40z"/>
<path d="M1235 1983 c-63 -17 -106 -85 -106 -167 0 -120 78 -179 217 -161 55
7 55 7 52 38 l-3 32 -60 -3 c-50 -3 -65 0 -88 18 -51 40 -37 50 72 50 73 0
100 3 104 13 7 20 -10 103 -27 129 -29 45 -101 67 -161 51z m77 -75 c9 -7 19
-23 23 -35 6 -22 4 -23 -54 -23 -67 0 -78 13 -41 50 23 23 49 26 72 8z"/>
<path d="M1980 1710 c-20 -3 -40 -9 -45 -12 -16 -10 -12 -498 5 -537 15 -36
52 -59 109 -67 44 -6 46 -4 56 52 6 38 4 42 -18 48 -15 3 -29 17 -34 33 -5 16
-9 132 -9 260 1 200 -1 231 -14 230 -8 -1 -31 -4 -50 -7z"/>
<path d="M271 1483 c1 -250 1 -240 -23 -263 -26 -24 -69 -26 -127 -5 l-42 14
-20 -45 c-10 -25 -17 -49 -14 -54 10 -17 93 -37 150 -37 99 -1 157 29 187 97
7 15 12 108 13 243 l3 217 -63 0 -64 0 0 -167z"/>
<path d="M1020 1516 l-45 -11 0 -203 0 -203 60 3 60 3 0 160 0 160 40 3 c75 5
80 -5 83 -177 l3 -151 60 0 59 0 0 140 c0 193 -17 240 -101 276 -33 15 -159
15 -219 0z"/>
<path d="M1547 1510 c-72 -35 -109 -99 -108 -185 0 -75 15 -117 52 -151 45
-41 142 -56 193 -31 17 8 18 6 12 -24 -3 -19 -16 -42 -27 -51 -25 -21 -99 -24
-148 -7 -39 14 -48 7 -57 -47 l-6 -41 42 -11 c35 -9 161 -9 208 -1 27 5 89 69
99 104 7 21 12 121 13 239 l1 203 -33 8 c-18 4 -71 9 -118 10 -67 3 -93 -1
-123 -15z m153 -175 l0 -94 -32 -6 c-18 -3 -42 -4 -52 -2 -65 12 -76 138 -17
184 9 7 35 13 59 13 l42 0 0 -95z"/>
<path d="M2270 1510 c-50 -26 -80 -62 -100 -120 -40 -119 8 -240 112 -283 43
-18 175 -17 220 1 25 10 26 13 17 54 -6 23 -11 44 -13 45 -1 1 -20 -2 -41 -8
-63 -18 -135 -6 -162 25 -13 15 -23 31 -23 37 0 5 57 9 136 9 l135 0 -2 58
c-2 61 -19 115 -47 145 -48 54 -164 72 -232 37z m138 -99 c12 -10 22 -28 22
-40 0 -20 -5 -21 -76 -21 -73 0 -75 1 -69 23 16 53 82 74 123 38z"/>
<path d="M502 1363 c4 -175 12 -203 70 -245 29 -20 44 -23 123 -23 86 1 144 7
162 18 5 3 8 94 8 204 l0 198 -60 0 -60 0 -1 -150 c-1 -82 -2 -156 -3 -162 -2
-19 -76 -16 -95 2 -15 16 -29 69 -26 96 1 8 2 60 1 117 l-1 102 -61 0 -61 0 4
-157z"/>
<path d="M1260 950 c-24 -24 -25 -38 -4 -68 28 -40 94 -19 94 30 0 28 -28 58
-53 58 -9 0 -26 -9 -37 -20z"/>
<path d="M850 880 l0 -40 63 0 64 0 0 -167 0 -168 47 -3 46 -3 0 170 0 171 63
0 64 0 -1 38 -1 37 -172 3 -173 2 0 -40z"/>
<path d="M1454 818 l-32 -8 0 -155 1 -155 43 0 44 0 0 130 0 130 29 0 c46 0
54 -19 55 -143 l2 -112 45 -3 44 -3 0 128 0 128 25 3 c49 5 55 -8 58 -138 l4
-120 43 0 44 0 -2 128 c-2 102 -6 132 -21 154 -29 45 -101 60 -161 34 -25 -10
-36 -10 -63 1 -35 15 -105 15 -158 1z"/>
<path d="M2011 813 c-32 -16 -71 -68 -79 -103 -8 -42 -3 -109 12 -137 27 -53
71 -77 145 -79 88 -3 111 7 111 46 l0 31 -62 -7 c-55 -5 -66 -3 -90 16 -51 40
-38 49 75 52 l102 3 -3 45 c-4 58 -27 104 -60 126 -38 25 -109 28 -151 7z
m101 -65 c9 -7 19 -23 23 -35 6 -22 4 -23 -54 -23 -67 0 -78 13 -41 50 23 23
49 26 72 8z"/>
<path d="M2355 824 c-11 -3 -31 -13 -45 -24 -21 -15 -25 -27 -24 -64 1 -54 13
-70 74 -101 89 -45 92 -81 6 -72 -28 3 -57 7 -65 9 -9 2 -17 -9 -21 -29 -7
-32 -6 -33 32 -43 85 -23 178 2 197 53 21 56 -9 104 -87 139 -77 35 -65 73 20
64 45 -5 47 -4 53 25 4 17 4 33 2 36 -8 7 -117 12 -142 7z"/>
<path d="M1251 660 l0 -160 45 0 44 0 0 160 0 160 -45 0 -44 0 0 -160z"/>
</g>
</svg>
